Coordinates
version=1
nRows=16
nColumns=28
inDegrees=yes

Units are S.I. units (second, meters, Newtons, ...)
Angles are in degrees.

endheader
time	pelvis_tilt	pelvis_list	pelvis_rotation	pelvis_tx	pelvis_ty	pelvis_tz	hip_flexion_r	hip_adduction_r	hip_rotation_r	knee_angle_r	ankle_angle_r	subtalar_angle_r	mtp_angle_r	hip_flexion_l	hip_adduction_l	hip_rotation_l	knee_angle_l	socket_flexion	socket_adduction	socket_rotation	socket_tx	socket_ty	socket_tz	foot_flex	lumbar_extension	lumbar_bending	lumbar_rotation
      0.65416667	      1.27132858	     -2.84439726	      5.27408619	     -0.03440055	      0.98174319	      0.27200899	     25.77357153	      6.60841981	      1.48169910	     -8.45382474	     10.14483981	    -30.60193122	     -7.24439996	    -21.64947185	     -2.62765497	     -1.91597741	     -9.03943272	     -3.18851743	     -1.30416233	     17.65703983	      0.00000000	     -0.00129458	      0.00000000	     10.42489221	    -12.24948762	      1.64059211	      0.92959105
      0.65833333	      1.29047156	     -2.93158368	      5.43492783	     -0.02841922	      0.98077690	      0.27173205	     25.83498950	      6.78705908	      1.75692939	     -9.04951254	      9.96366229	    -30.62549917	     -7.19223463	    -21.92507826	     -2.80259274	     -1.83150512	     -9.16648416	     -3.11934030	     -1.31660653	     17.74033157	      0.00000000	     -0.00117294	      0.00000000	     10.46844669	    -12.22657915	      1.86298123	      0.87479258
      0.66250000	      1.33902805	     -3.05716305	      5.52025068	     -0.02241841	      0.97977493	      0.27152842	     25.95021870	      7.03499416	      1.93083753	     -9.80227072	      9.68797643	    -30.72508170	     -7.10177147	    -22.24144815	     -2.97962845	     -1.85541758	     -9.30924300	     -3.07352032	     -1.29820152	     17.71946770	      0.00000000	     -0.00115685	      0.00000000	     10.50426866	    -12.25144536	      2.12543774	      0.78106635
      0.66666667	      1.38138343	     -3.15699192	      5.61966841	     -0.01636463	      0.97884561	      0.27130579	     26.04119221	      7.24686338	      2.09459518	    -10.50113428	      9.39136214	    -30.80307357	     -6.99980098	    -22.53788950	     -3.13968058	     -1.83891053	     -9.46453229	     -3.00639759	     -1.29041728	     17.74302330	      0.00000000	     -0.00105203	      0.00000000	     10.51452781	    -12.24451831	      2.36272040	      0.71771862
      0.67083333	      1.75415283	     -3.57041449	      5.65748250	     -0.00978121	      0.97827600	      0.27086555	     25.62569634	      7.80127470	      2.14530203	    -10.75737545	      7.19732884	    -32.55932789	     -2.92996093	    -23.27626508	     -3.62298706	     -2.56462748	     -9.52394624	     -2.95031923	     -1.31293761	     18.18764404	      0.00000000	     -0.00104016	      0.00000000	     10.49827926	    -12.52989393	      3.03983290	      0.61116822
      0.67500000	      1.76776123	     -3.60488452	      5.76954362	     -0.00381568	      0.97741548	      0.27075738	     25.75306004	      7.94615946	      2.35333575	    -11.47879944	      6.94076345	    -32.51969569	     -2.87211137	    -23.48964433	     -3.72986286	     -2.42719080	     -9.75463130	     -2.87810705	     -1.29531168	     18.15667355	      0.00000000	     -0.00090502	      0.00000000	     10.48211350	    -12.51858762	      3.17120605	      0.60957615
      0.67916667	      1.78875436	     -3.66742838	      5.86040469	      0.00226174	      0.97661841	      0.27058669	     25.86825485	      8.11572834	      2.53166158	    -12.20516816	      6.64740330	    -32.48441214	     -2.81973350	    -23.71228994	     -3.84649241	     -2.31852765	     -9.99183118	     -2.81074026	     -1.28179874	     18.10759492	      0.00000000	     -0.00069087	      0.00000000	     10.44356169	    -12.48606242	      3.35142622	      0.60030582
      0.68333333	      1.83589089	     -3.79025896	      5.81969886	      0.00834404	      0.97577182	      0.27058560	     26.09989956	      8.37551613	      2.44444804	    -13.17434396	      6.09116990	    -32.51585166	     -2.63536148	    -23.93899503	     -3.95782340	     -2.36887661	    -10.33977651	     -2.78443268	     -1.24408368	     17.83477313	      0.00000000	     -0.00062452	      0.00000000	     10.35216058	    -12.48654495	      3.58901326	      0.57718637
      0.68750000	      1.85653288	     -3.92079661	      5.87246381	      0.01442538	      0.97498916	      0.27049302	     26.27983471	      8.60620189	      2.43760006	    -13.98245101	      5.55923679	    -32.54267419	     -2.33707386	    -24.11517713	     -4.13295737	     -2.31746686	    -10.67547354	     -2.74696763	     -1.22792551	     17.75737885	      0.00000000	     -0.00059591	      0.00000000	     10.25648794	    -12.47630387	      3.84388002	      0.57989851
      0.69166667	      1.88002757	     -4.00965465	      5.98817438	      0.02056948	      0.97434881	      0.27036975	     26.34447141	      8.78519402	      2.62118007	    -14.62910453	      5.25147030	    -32.51172831	     -2.21168520	    -24.29076073	     -4.30482922	     -2.18575752	    -10.95636339	     -2.62397338	     -1.20192430	     17.78908968	      0.00000000	     -0.00045658	      0.00000000	     10.16797205	    -12.44302283	      4.05052987	      0.58424281
      0.69583333	      1.92552275	     -4.21727155	      6.11956957	      0.02694001	      0.97366367	      0.26980084	     26.54472002	      8.92358782	      1.90189875	    -15.37077605	      2.69706145	    -33.74401090	      4.95667031	    -24.03829703	     -4.61165741	     -2.78319347	    -12.65325193	     -3.37421341	     -1.55078527	     18.24025693	      0.00000000	     -0.00001157	      0.00000000	     10.02513670	    -12.37947418	      4.44906789	      0.48266984
      0.70000000	      1.97825287	     -4.33161724	      6.16948014	      0.03304279	      0.97314520	      0.26982973	     26.62531912	      9.14733477	      2.06200053	    -16.11749188	      2.40602678	    -33.67013471	      4.95746040	    -24.22448350	     -4.78340672	     -2.67180394	    -12.94424448	     -3.22445933	     -1.47887133	     18.17174722	      0.00000000	      0.00005714	      0.00000000	      9.84478408	    -12.39636081	      4.67191756	      0.47095241
      0.70416667	      2.06183848	     -4.50179410	      6.12421665	      0.03924863	      0.97267940	      0.26985867	     26.73600163	      9.43284512	      2.04234679	    -16.96464653	      1.99015483	    -33.61116318	      4.97213189	    -24.42938200	     -4.95390808	     -2.64665056	    -13.33479231	     -3.12707799	     -1.40290994	     17.92979874	      0.00000000	      0.00011877	      0.00000000	      9.62113171	    -12.42580210	      4.96711143	      0.47439733
      0.70833333	      2.12986469	     -4.66194885	      6.12838262	      0.04543472	      0.97229055	      0.26988131	     26.80852781	      9.69263650	      2.08336637	    -17.72294852	      1.63937406	    -33.55581064	      5.00445183	    -24.58652257	     -5.14342945	     -2.55061241	    -13.73146343	     -2.98896828	     -1.32544631	     17.80382741	      0.00000000	      0.00017552	      0.00000000	      9.40405937	    -12.45161332	      5.24509419	      0.49798242
      0.71250000	      2.28789269	     -4.98384065	      6.33312189	      0.05176674	      0.97217600	      0.26936565	     26.78025898	      9.95229219	      1.50690857	    -18.36867210	      0.80766913	    -33.66838242	      5.81317699	    -24.55118818	     -5.58572722	     -2.59934503	    -14.88714899	     -3.30080505	     -1.42017203	     17.75114539	      0.00000000	      0.00042346	      0.00000000	      9.13782457	    -12.50162566	      5.75966639	      0.53213604
      0.71666667	      2.35679879	     -5.12244439	      6.27184326	      0.05800392	      0.97191444	      0.26956282	     26.83039717	     10.21973156	      1.64596467	    -19.13523199	      0.54823186	    -33.62777477	      5.89098076	    -24.68115232	     -5.73771090	     -2.55145752	    -15.33320515	     -3.15353588	     -1.30943428	     17.59712678	      0.00000000	      0.00054778	      0.00000000	      8.86279382	    -12.52601319	      6.00165085	      0.50723873
